<svg width="73" height="18" viewBox="0 0 73 18" fill="none" xmlns="http://www.w3.org/2000/svg">
<path d="M12.3375 3.66832C12.1147 3.44115 11.8321 3.2817 11.5224 3.2084C11.2127 3.13511 10.8886 3.15097 10.5875 3.25415L2.33338 6.01332C2.00048 6.12229 1.70962 6.33191 1.50094 6.61324C1.29226 6.89457 1.17606 7.23375 1.16838 7.58395C1.16069 7.93414 1.26191 8.27809 1.45805 8.5683C1.65419 8.85852 1.93558 9.08069 2.26338 9.20415L5.32005 10.3708C5.38965 10.3974 5.45302 10.4381 5.50622 10.4903C5.55941 10.5425 5.60128 10.6051 5.62922 10.6742L6.79588 13.7367C6.91464 14.0598 7.13014 14.3385 7.41303 14.5347C7.69592 14.731 8.03243 14.8353 8.37672 14.8333H8.41755C8.76814 14.8269 9.10795 14.711 9.38935 14.5018C9.67075 14.2926 9.87963 14.0006 9.98672 13.6667L12.7459 5.40082C12.8462 5.1027 12.8612 4.78245 12.789 4.47629C12.7168 4.17012 12.5605 3.89025 12.3375 3.66832ZM11.6667 5.03332L8.87838 13.305C8.84601 13.4097 8.78098 13.5013 8.69281 13.5663C8.60464 13.6314 8.49796 13.6666 8.38838 13.6667C8.27945 13.6684 8.17255 13.637 8.0819 13.5766C7.99124 13.5162 7.92113 13.4296 7.88088 13.3283L6.71422 10.2658C6.62963 10.0433 6.49919 9.84104 6.33136 9.67221C6.16353 9.50337 5.96207 9.37173 5.74005 9.28582L2.67755 8.11915C2.57424 8.08129 2.48543 8.01194 2.42367 7.92087C2.36192 7.82981 2.33033 7.72164 2.33338 7.61165C2.33347 7.50207 2.36863 7.39539 2.4337 7.30722C2.49878 7.21906 2.59036 7.15403 2.69505 7.12165L10.9667 4.36249C11.0617 4.32378 11.1658 4.31341 11.2666 4.33263C11.3673 4.35186 11.4603 4.39985 11.5344 4.4708C11.6084 4.54176 11.6603 4.63264 11.6838 4.73247C11.7073 4.8323 11.7013 4.93679 11.6667 5.03332Z" fill="#249D55"/>
<path d="M11.6667 5.03332L8.87838 13.305C8.84601 13.4097 8.78098 13.5013 8.69281 13.5663C8.60464 13.6314 8.49796 13.6666 8.38838 13.6667C8.27945 13.6684 8.17255 13.637 8.0819 13.5766C7.99124 13.5162 7.92113 13.4296 7.88088 13.3283L6.71422 10.2658C6.62963 10.0433 6.49919 9.84104 6.33136 9.67221C6.16353 9.50337 5.96207 9.37173 5.74005 9.28582L2.67755 8.11915C2.57424 8.08129 2.48543 8.01194 2.42367 7.92087C2.36192 7.82981 2.33033 7.72164 2.33338 7.61165C2.33347 7.50207 2.36863 7.39539 2.4337 7.30722C2.49878 7.21906 2.59036 7.15403 2.69505 7.12165L10.9667 4.36249C11.0617 4.32378 11.1658 4.31341 11.2666 4.33263C11.3673 4.35186 11.4603 4.39985 11.5344 4.4708C11.6084 4.54176 11.6603 4.63264 11.6838 4.73247C11.7073 4.8323 11.7013 4.93679 11.6667 5.03332Z" fill="#249D55"/>
<path d="M23.54 14C23.4467 14 23.3673 13.972 23.302 13.916C23.246 13.8507 23.218 13.7713 23.218 13.678V4.536C23.218 4.43333 23.246 4.354 23.302 4.298C23.3673 4.23267 23.4467 4.2 23.54 4.2H24.24C24.3893 4.2 24.5107 4.27467 24.604 4.424L27.558 10.08L30.54 4.424C30.5587 4.368 30.596 4.31667 30.652 4.27C30.7173 4.22333 30.7967 4.2 30.89 4.2H31.576C31.6787 4.2 31.758 4.23267 31.814 4.298C31.8793 4.354 31.912 4.43333 31.912 4.536V13.678C31.912 13.7713 31.8793 13.8507 31.814 13.916C31.7487 13.972 31.6693 14 31.576 14H30.89C30.7967 14 30.7173 13.972 30.652 13.916C30.596 13.8507 30.568 13.7713 30.568 13.678V6.79L28.23 11.354C28.1367 11.55 27.9873 11.648 27.782 11.648H27.348C27.1427 11.648 26.9933 11.55 26.9 11.354L24.548 6.79V13.678C24.548 13.7713 24.5153 13.8507 24.45 13.916C24.394 13.972 24.3193 14 24.226 14H23.54ZM37.3121 14.14C36.2854 14.14 35.4874 13.8507 34.9181 13.272C34.3581 12.6933 34.0594 11.9233 34.0221 10.962L34.0081 10.36L34.0221 9.758C34.0594 8.806 34.3627 8.04067 34.9321 7.462C35.5014 6.874 36.2947 6.58 37.3121 6.58C38.3294 6.58 39.1227 6.874 39.6921 7.462C40.2614 8.04067 40.5647 8.806 40.6021 9.758C40.6114 9.86067 40.6161 10.0613 40.6161 10.36C40.6161 10.6587 40.6114 10.8593 40.6021 10.962C40.5647 11.9233 40.2614 12.6933 39.6921 13.272C39.1321 13.8507 38.3387 14.14 37.3121 14.14ZM37.3121 13.062C37.9001 13.062 38.3621 12.8753 38.6981 12.502C39.0434 12.1287 39.2301 11.592 39.2581 10.892C39.2674 10.7987 39.2721 10.6213 39.2721 10.36C39.2721 10.0987 39.2674 9.92133 39.2581 9.828C39.2301 9.128 39.0434 8.59133 38.6981 8.218C38.3621 7.84467 37.9001 7.658 37.3121 7.658C36.7241 7.658 36.2574 7.84467 35.9121 8.218C35.5667 8.59133 35.3847 9.128 35.3661 9.828L35.3521 10.36L35.3661 10.892C35.3847 11.592 35.5667 12.1287 35.9121 12.502C36.2574 12.8753 36.7241 13.062 37.3121 13.062ZM45.488 14.14C44.4893 14.14 43.7053 13.86 43.136 13.3C42.576 12.7307 42.2773 11.9373 42.24 10.92L42.226 10.36L42.24 9.8C42.2773 8.78267 42.576 7.994 43.136 7.434C43.7053 6.86467 44.4893 6.58 45.488 6.58C46.16 6.58 46.7293 6.70133 47.196 6.944C47.6627 7.18667 48.008 7.48533 48.232 7.84C48.4653 8.19467 48.5913 8.54933 48.61 8.904C48.6193 8.99733 48.5913 9.072 48.526 9.128C48.4607 9.184 48.3813 9.212 48.288 9.212H47.616C47.5227 9.212 47.4527 9.19333 47.406 9.156C47.3593 9.11867 47.3127 9.044 47.266 8.932C47.1073 8.484 46.8833 8.16667 46.594 7.98C46.3047 7.784 45.9407 7.686 45.502 7.686C44.9233 7.686 44.4613 7.868 44.116 8.232C43.78 8.58667 43.598 9.13267 43.57 9.87L43.556 10.374L43.57 10.85C43.598 11.5967 43.78 12.1473 44.116 12.502C44.452 12.8567 44.914 13.034 45.502 13.034C45.9407 13.034 46.3047 12.9407 46.594 12.754C46.8833 12.558 47.1073 12.236 47.266 11.788C47.3127 11.676 47.3593 11.6013 47.406 11.564C47.4527 11.5173 47.5227 11.494 47.616 11.494H48.288C48.3813 11.494 48.4607 11.5267 48.526 11.592C48.5913 11.648 48.6193 11.7227 48.61 11.816C48.5913 12.1613 48.4653 12.516 48.232 12.88C48.008 13.2347 47.6627 13.5333 47.196 13.776C46.7387 14.0187 46.1693 14.14 45.488 14.14ZM56.5274 13.594C56.5741 13.65 56.5974 13.7107 56.5974 13.776C56.5974 13.8413 56.5694 13.8973 56.5134 13.944C56.4668 13.9813 56.4014 14 56.3174 14H55.4634C55.3141 14 55.1928 13.93 55.0994 13.79L53.0694 10.864H51.7534V13.678C51.7534 13.7713 51.7208 13.8507 51.6554 13.916C51.5994 13.972 51.5248 14 51.4314 14H50.7734C50.6801 14 50.6008 13.972 50.5354 13.916C50.4794 13.8507 50.4514 13.7713 50.4514 13.678V7.042C50.4514 6.94867 50.4794 6.874 50.5354 6.818C50.6008 6.75267 50.6801 6.72 50.7734 6.72H51.4314C51.5248 6.72 51.5994 6.75267 51.6554 6.818C51.7208 6.874 51.7534 6.94867 51.7534 7.042V9.73H53.0414L54.9174 6.93C55.0294 6.79 55.1554 6.72 55.2954 6.72H56.0234C56.1074 6.72 56.1774 6.74333 56.2334 6.79C56.2894 6.82733 56.3174 6.87867 56.3174 6.944C56.3174 6.99067 56.2941 7.04667 56.2474 7.112L54.1614 10.206L56.5274 13.594ZM58.4582 14C58.3648 14 58.2855 13.972 58.2202 13.916C58.1642 13.8507 58.1362 13.7713 58.1362 13.678V7.042C58.1362 6.94867 58.1642 6.874 58.2202 6.818C58.2855 6.75267 58.3648 6.72 58.4582 6.72H61.3702C62.2288 6.72 62.8822 6.89733 63.3302 7.252C63.7875 7.59733 64.0162 8.07333 64.0162 8.68C64.0162 9.08133 63.9415 9.394 63.7922 9.618C63.6428 9.83267 63.4142 10.0193 63.1062 10.178C63.4422 10.318 63.7035 10.5513 63.8902 10.878C64.0862 11.2047 64.1842 11.5547 64.1842 11.928C64.1842 12.6 63.9462 13.1133 63.4702 13.468C63.0035 13.8227 62.3408 14 61.4822 14H58.4582ZM61.2862 9.814C61.7435 9.814 62.1028 9.716 62.3642 9.52C62.6255 9.324 62.7562 9.04867 62.7562 8.694C62.7562 8.34867 62.6302 8.106 62.3782 7.966C62.1262 7.81667 61.7622 7.742 61.2862 7.742H59.4242V9.814H61.2862ZM61.3702 12.978C61.8368 12.978 62.2008 12.8893 62.4622 12.712C62.7328 12.5347 62.8682 12.2733 62.8682 11.928C62.8682 11.5547 62.7468 11.284 62.5042 11.116C62.2615 10.9387 61.8835 10.85 61.3702 10.85H59.4242V12.978H61.3702ZM68.1927 14.14C67.7353 14.14 67.3107 14.0467 66.9187 13.86C66.5267 13.6733 66.214 13.4213 65.9807 13.104C65.7567 12.7773 65.6447 12.418 65.6447 12.026C65.6447 11.41 65.8967 10.906 66.4007 10.514C66.914 10.1127 67.6047 9.85133 68.4727 9.73L70.5587 9.436V9.03C70.5587 8.078 70.0127 7.602 68.9207 7.602C68.51 7.602 68.174 7.69067 67.9127 7.868C67.6513 8.036 67.4553 8.23667 67.3247 8.47C67.2967 8.554 67.2593 8.61467 67.2127 8.652C67.1753 8.68933 67.1193 8.708 67.0447 8.708H66.4427C66.3587 8.708 66.284 8.68 66.2187 8.624C66.1627 8.55867 66.1347 8.484 66.1347 8.4C66.144 8.176 66.2467 7.924 66.4427 7.644C66.648 7.35467 66.9607 7.10733 67.3807 6.902C67.8007 6.68733 68.3187 6.58 68.9347 6.58C69.98 6.58 70.7313 6.82733 71.1887 7.322C71.646 7.80733 71.8747 8.414 71.8747 9.142V13.678C71.8747 13.7713 71.842 13.8507 71.7767 13.916C71.7207 13.972 71.646 14 71.5527 14H70.9087C70.8153 14 70.736 13.972 70.6707 13.916C70.6147 13.8507 70.5867 13.7713 70.5867 13.678V13.076C70.3813 13.3747 70.0827 13.6267 69.6907 13.832C69.2987 14.0373 68.7993 14.14 68.1927 14.14ZM68.4867 13.09C69.0933 13.09 69.588 12.894 69.9707 12.502C70.3627 12.1007 70.5587 11.5267 70.5587 10.78V10.388L68.9347 10.626C68.272 10.7193 67.7727 10.878 67.4367 11.102C67.1007 11.3167 66.9327 11.592 66.9327 11.928C66.9327 12.3013 67.0867 12.5907 67.3947 12.796C67.7027 12.992 68.0667 13.09 68.4867 13.09Z" fill="#249D55"/>
</svg>
